<svg width="800" height="480" viewBox="0 0 800 480" fill="none" xmlns="http://www.w3.org/2000/svg">
<rect width="800" height="480" fill="white"/>
<g clip-path="url(#clip0_1_2)">
<g clip-path="url(#clip1_1_2)">
<path d="M670 250H650C644.488 250 640 245.512 640 240C640 234.488 644.488 230 650 230H695V210H650C633.456 210 620 223.456 620 240C620 256.544 633.456 270 650 270H670C675.512 270 680 274.488 680 280C680 285.512 675.512 290 670 290H620V310H670C686.544 310 700 296.544 700 280C700 263.456 686.544 250 670 250Z" fill="#111215"/>
<path d="M605 210H585V310H605V210Z" fill="#111215"/>
<path d="M500 210H480V310H500V210Z" fill="#111215"/>
<path d="M394.438 280H385.562L340 170H320V310H340V230H343.438L376.569 310H403.431L436.562 230H440V310H460V170H440L394.438 280Z" fill="#111215"/>
<path d="M500 170H480V190H500V170Z" fill="#111215"/>
<path d="M605 170H585V190H605V170Z" fill="#111215"/>
<path d="M544.925 213.088L540 225L533.787 210H520V310H540V240C540 234.475 544.475 230 550 230H572.5V210H549.55C547.525 210 545.7 211.225 544.925 213.088Z" fill="#111215"/>
<path d="M166.569 320H193.431L210 280H150L166.569 320Z" fill="#111215"/>
<path d="M194.288 210L215 160H145L165.712 210H194.288Z" fill="#111215"/>
<path d="M210 280H260V200H243.138L210 280Z" fill="#111215"/>
<path d="M100 200V280H150L116.862 200H100Z" fill="#111215"/>
</g>
</g>
<defs>
<clipPath id="clip0_1_2">
<rect width="610" height="170" fill="white" transform="translate(95 155)"/>
</clipPath>
<clipPath id="clip1_1_2">
<rect width="610" height="170" fill="white" transform="translate(95 155)"/>
</clipPath>
</defs>
</svg>
